<?xml version="1.0" encoding="utf-8"?>
<!-- Generator: Adobe Illustrator 16.0.0, SVG Export Plug-In . SVG Version: 6.00 Build 0)  -->
<!DOCTYPE svg PUBLIC "-//W3C//DTD SVG 1.1//EN" "http://www.w3.org/Graphics/SVG/1.1/DTD/svg11.dtd">
<svg version="1.1" id="Layer_1" xmlns="http://www.w3.org/2000/svg" xmlns:xlink="http://www.w3.org/1999/xlink" x="0px" y="0px"
	 width="24px" height="24px" viewBox="0 0 24 24" enable-background="new 0 0 24 24" xml:space="preserve">
<symbol  id="New_Symbol" viewBox="-11 -8 22 16">
	<path fill="#C879E5" d="M-11-8v2.8c0,0.567,0.146,1.088,0.438,1.563C-10.271-3.162-9.883-2.8-9.4-2.55
		c1.033,0.517,2.083,0.903,3.15,1.162S-4.1-1-3-1s2.183-0.129,3.25-0.388C1.316-1.646,2.367-2.033,3.4-2.55
		C3.883-2.8,4.271-3.162,4.563-3.638C4.854-4.112,5-4.633,5-5.2V-8H-11z M7-8v3c0,0.733-0.204,1.438-0.612,2.112
		C5.979-2.213,5.4-1.633,4.65-1.15C5.5-1.25,6.3-1.421,7.05-1.662C7.8-1.904,8.5-2.2,9.15-2.55c0.6-0.333,1.059-0.704,1.375-1.112
		S11-4.517,11-5v-3H7z M-3,0c-1.1,0-2.042,0.392-2.825,1.175C-6.608,1.959-7,2.9-7,4s0.392,2.041,1.175,2.825
		C-5.042,7.608-4.1,8-3,8s2.042-0.392,2.825-1.175C0.608,6.041,1,5.1,1,4S0.608,1.959-0.175,1.175C-0.958,0.392-1.9,0-3,0z M7,4
		c0-1.1-0.392-2.041-1.175-2.825C5.041,0.392,4.1,0,3,0C2.816,0,2.584,0.021,2.3,0.063C2.017,0.104,1.783,0.15,1.6,0.2
		c0.45,0.533,0.797,1.125,1.038,1.774C2.879,2.625,3,3.3,3,4S2.879,5.375,2.638,6.025C2.396,6.675,2.05,7.267,1.6,7.8
		c0.234,0.083,0.467,0.138,0.7,0.163C2.533,7.987,2.767,8,3,8c1.1,0,2.041-0.392,2.825-1.175C6.608,6.041,7,5.1,7,4z M-9-6H3v0.8
		C3-5.017,2.954-4.85,2.862-4.7C2.771-4.55,2.65-4.434,2.5-4.35C1.6-3.9,0.691-3.563-0.225-3.338C-1.142-3.112-2.067-3-3-3
		s-1.858-0.112-2.775-0.338C-6.692-3.563-7.6-3.9-8.5-4.35C-8.65-4.434-8.771-4.55-8.862-4.7C-8.954-4.85-9-5.017-9-5.2V-6z M-3,2
		c0.55,0,1.021,0.195,1.413,0.588C-1.196,2.979-1,3.45-1,4s-0.196,1.021-0.587,1.412C-1.979,5.805-2.45,6-3,6
		s-1.021-0.195-1.413-0.588C-4.804,5.021-5,4.55-5,4s0.196-1.021,0.587-1.412C-4.021,2.195-3.55,2-3,2z"/>
</symbol>
<use xlink:href="#New_Symbol"  width="22" height="16" id="XMLID_1_" x="-11" y="-8" transform="matrix(1 0 0 -1 12 12)" overflow="visible"/>
</svg>
