<?xml version="1.0" encoding="utf-8"?>
<!-- Generator: Adobe Illustrator 16.0.0, SVG Export Plug-In . SVG Version: 6.00 Build 0)  -->
<!DOCTYPE svg PUBLIC "-//W3C//DTD SVG 1.1//EN" "http://www.w3.org/Graphics/SVG/1.1/DTD/svg11.dtd">
<svg version="1.1" id="Layer_1" xmlns="http://www.w3.org/2000/svg" xmlns:xlink="http://www.w3.org/1999/xlink" x="0px" y="0px"
	 width="24px" height="24px" viewBox="0 0 24 24" enable-background="new 0 0 24 24" xml:space="preserve">
<symbol  id="New_Symbol" viewBox="-12 -11.5 24 23">
	<path fill="#E075B8" d="M-6-11.5c-0.833,0-1.542,0.291-2.125,0.875S-9-9.334-9-8.5s0.292,1.541,0.875,2.125S-6.833-5.5-6-5.5
		c0.233,0,0.45-0.025,0.65-0.075c0.2-0.05,0.392-0.116,0.575-0.2L-3.35-4c-0.467,0.517-0.792,1.1-0.975,1.75
		C-4.508-1.6-4.55-0.95-4.45-0.3l-2.025,0.675c-0.283-0.416-0.642-0.75-1.075-1C-7.983-0.875-8.467-1-9-1
		c-0.833,0-1.542,0.291-2.125,0.875S-12,1.166-12,2s0.292,1.541,0.875,2.125S-9.833,5-9,5s1.542-0.291,2.125-0.875S-6,2.834-6,2V1.8
		l2.025-0.7C-3.642,1.7-3.196,2.209-2.638,2.625c0.559,0.416,1.188,0.684,1.888,0.8V5.6C-1.4,5.783-1.938,6.138-2.362,6.662
		C-2.788,7.188-3,7.8-3,8.5c0,0.834,0.292,1.541,0.875,2.125S-0.833,11.5,0,11.5c0.834,0,1.541-0.291,2.125-0.875S3,9.334,3,8.5
		c0-0.7-0.217-1.313-0.65-1.838C1.916,6.138,1.383,5.783,0.75,5.6V3.425c0.7-0.116,1.329-0.384,1.888-0.8
		C3.195,2.209,3.642,1.7,3.975,1.1L6,1.8V2c0,0.834,0.291,1.541,0.875,2.125S8.166,5,9,5s1.541-0.291,2.125-0.875S12,2.834,12,2
		s-0.291-1.541-0.875-2.125S9.834-1,9-1C8.467-1,7.979-0.875,7.537-0.625s-0.795,0.584-1.063,1L4.45-0.3
		c0.1-0.65,0.058-1.296-0.125-1.938C4.142-2.879,3.816-3.467,3.35-4l1.426-1.75C4.959-5.666,5.15-5.604,5.35-5.563
		C5.55-5.521,5.767-5.5,6-5.5c0.834,0,1.541-0.291,2.125-0.875S9-7.666,9-8.5s-0.291-1.541-0.875-2.125S6.834-11.5,6-11.5
		s-1.541,0.291-2.125,0.875S3-9.334,3-8.5c0,0.334,0.055,0.654,0.162,0.963C3.271-7.229,3.416-6.95,3.6-6.7L2.175-4.925
		C1.492-5.309,0.763-5.5-0.013-5.5c-0.775,0-1.504,0.191-2.188,0.575L-3.6-6.7c0.184-0.25,0.329-0.528,0.438-0.837S-3-8.166-3-8.5
		c0-0.834-0.292-1.541-0.875-2.125S-5.167-11.5-6-11.5z M-9,1c0.283,0,0.521,0.096,0.712,0.287C-8.096,1.479-8,1.717-8,2
		s-0.096,0.521-0.288,0.713C-8.479,2.904-8.717,3-9,3s-0.521-0.096-0.712-0.287C-9.904,2.521-10,2.283-10,2s0.096-0.521,0.288-0.713
		C-9.521,1.096-9.283,1-9,1z M-6-9.5c0.283,0,0.521,0.096,0.712,0.287C-5.096-9.021-5-8.783-5-8.5s-0.096,0.521-0.288,0.713
		C-5.479-7.596-5.717-7.5-6-7.5s-0.521-0.096-0.712-0.287C-6.904-7.979-7-8.217-7-8.5s0.096-0.521,0.288-0.713
		C-6.521-9.404-6.283-9.5-6-9.5z M0,7.5c0.283,0,0.521,0.096,0.713,0.287S1,8.217,1,8.5S0.904,9.021,0.713,9.213S0.283,9.5,0,9.5
		s-0.521-0.096-0.712-0.287C-0.904,9.021-1,8.783-1,8.5s0.096-0.521,0.288-0.713C-0.521,7.596-0.283,7.5,0,7.5z M0-3.5
		c0.7,0,1.291,0.242,1.775,0.725C2.258-2.291,2.5-1.7,2.5-1S2.258,0.291,1.775,0.775C1.291,1.258,0.7,1.5,0,1.5
		s-1.292-0.242-1.775-0.725C-2.258,0.291-2.5-0.3-2.5-1s0.242-1.291,0.725-1.775C-1.292-3.258-0.7-3.5,0-3.5z M6-9.5
		c0.283,0,0.521,0.096,0.713,0.287S7-8.783,7-8.5S6.904-7.979,6.713-7.787S6.283-7.5,6-7.5S5.479-7.596,5.287-7.787S5-8.217,5-8.5
		s0.096-0.521,0.287-0.713S5.717-9.5,6-9.5z M9,1c0.283,0,0.521,0.096,0.713,0.287S10,1.717,10,2S9.904,2.521,9.713,2.713
		S9.283,3,9,3S8.479,2.904,8.287,2.713S8,2.283,8,2s0.096-0.521,0.287-0.713S8.717,1,9,1z"/>
</symbol>
<use xlink:href="#New_Symbol"  width="24" height="23" id="XMLID_1_" x="-12" y="-11.5" transform="matrix(1 0 0 -1 12 12)" overflow="visible"/>
</svg>
