<?xml version="1.0" encoding="utf-8"?>
<!-- Generator: Adobe Illustrator 16.0.0, SVG Export Plug-In . SVG Version: 6.00 Build 0)  -->
<!DOCTYPE svg PUBLIC "-//W3C//DTD SVG 1.1//EN" "http://www.w3.org/Graphics/SVG/1.1/DTD/svg11.dtd">
<svg version="1.1" id="Layer_1" xmlns="http://www.w3.org/2000/svg" xmlns:xlink="http://www.w3.org/1999/xlink" x="0px" y="0px"
	 width="24px" height="24px" viewBox="0 0 24 24" enable-background="new 0 0 24 24" xml:space="preserve">
<symbol  id="New_Symbol" viewBox="-10.023 -10.035 20.047 20.07">
	<path fill="#86A8E7" d="M-6.423,2.039l1.95-0.824c0.233,0.467,0.475,0.916,0.725,1.35s0.525,0.867,0.825,1.3l-1.4,0.275
		L-6.423,2.039z M-2.873-0.035l2.85-2.825c0.7,0.267,1.45,0.675,2.25,1.225s1.55,1.175,2.25,1.875
		c1.167,1.167,2.079,2.463,2.737,3.888S8.16,6.864,8.077,8.064c-1.2,0.084-2.518-0.204-3.95-0.862
		c-1.434-0.659-2.733-1.571-3.9-2.737c-0.7-0.7-1.325-1.45-1.875-2.25C-2.198,1.414-2.606,0.664-2.873-0.035z M1.577,1.59
		C1.193,1.973,1.002,2.443,1.002,3.002s0.191,1.029,0.575,1.412C1.96,4.798,2.435,4.989,3.002,4.989
		c0.566,0,1.042-0.191,1.425-0.575C4.81,4.031,5.002,3.561,5.002,3.002S4.81,1.973,4.427,1.59C4.044,1.206,3.568,1.015,3.002,1.015
		C2.435,1.015,1.96,1.206,1.577,1.59z M2.052-6.436l2.1,2.1l-0.274,1.4c-0.434-0.3-0.866-0.57-1.3-0.813S1.693-4.227,1.227-4.461
		L2.052-6.436z M9.877,9.89c0.316-2.017,0.12-3.979-0.588-5.888S7.36,0.273,5.627-1.461l0.5-2.475
		c0.066-0.334,0.05-0.658-0.05-0.975c-0.101-0.316-0.268-0.592-0.5-0.825l-4.2-4.2l-2.1,4.925l-4.275,4.275l-4.925,2.1l4.175,4.2
		c0.233,0.233,0.512,0.4,0.837,0.5c0.325,0.1,0.654,0.117,0.987,0.05l2.475-0.5c1.733,1.733,3.55,2.958,5.45,3.675
		C5.901,10.006,7.86,10.206,9.877,9.89z M-8.148-3.91c0.583,0.583,1.296,0.879,2.138,0.887c0.842,0.009,1.554-0.279,2.138-0.862
		c0.583-0.583,0.871-1.296,0.862-2.138S-3.315-7.577-3.898-8.16c-0.417-0.417-1.112-0.775-2.087-1.075s-2.321-0.567-4.038-0.8
		c0.233,1.717,0.5,3.063,0.8,4.037C-8.923-5.023-8.565-4.327-8.148-3.91z M-6.723-5.311c-0.167-0.166-0.333-0.471-0.5-0.912
		C-7.39-6.664-7.506-7.11-7.573-7.561c0.45,0.066,0.896,0.18,1.337,0.338c0.442,0.158,0.746,0.32,0.913,0.487
		c0.2,0.2,0.308,0.441,0.325,0.725c0.017,0.284-0.075,0.525-0.275,0.726c-0.2,0.199-0.441,0.295-0.725,0.287
		C-6.282-5.006-6.523-5.11-6.723-5.311z"/>
</symbol>
<use xlink:href="#New_Symbol"  width="20.047" height="20.07" id="XMLID_1_" x="-10.023" y="-10.035" transform="matrix(1 0 0 -1 12 12)" overflow="visible"/>
</svg>
