<?xml version="1.0" encoding="utf-8"?>
<!-- Generator: Adobe Illustrator 16.0.0, SVG Export Plug-In . SVG Version: 6.00 Build 0)  -->
<!DOCTYPE svg PUBLIC "-//W3C//DTD SVG 1.1//EN" "http://www.w3.org/Graphics/SVG/1.1/DTD/svg11.dtd">
<svg version="1.1" id="Layer_1" xmlns="http://www.w3.org/2000/svg" xmlns:xlink="http://www.w3.org/1999/xlink" x="0px" y="0px"
	 width="24px" height="24px" viewBox="0 0 24 24" enable-background="new 0 0 24 24" xml:space="preserve">
<symbol  id="New_Symbol" viewBox="-10.25 -9.75 20.5 19.5">
	<path fill="#3964BD" d="M-2.25,1.75c-1.1,0-2.042,0.392-2.825,1.175C-5.858,3.709-6.25,4.65-6.25,5.75s0.392,2.041,1.175,2.825
		C-4.292,9.358-3.35,9.75-2.25,9.75s2.041-0.392,2.825-1.175C1.358,7.791,1.75,6.85,1.75,5.75S1.358,3.709,0.575,2.925
		C-0.209,2.142-1.15,1.75-2.25,1.75z M-2.25,3.75c0.55,0,1.021,0.195,1.413,0.588C-0.445,4.729-0.25,5.2-0.25,5.75
		s-0.195,1.021-0.587,1.412C-1.229,7.555-1.7,7.75-2.25,7.75s-1.021-0.195-1.413-0.588C-4.054,6.771-4.25,6.3-4.25,5.75
		s0.196-1.021,0.587-1.412C-3.271,3.945-2.8,3.75-2.25,3.75z M8.85-9.75L5.65-6.55C5.3-6.75,4.925-6.916,4.525-7.05
		c-0.4-0.134-0.825-0.2-1.275-0.2C2-7.25,0.938-6.813,0.063-5.938S-1.25-4-1.25-2.75s0.438,2.313,1.313,3.188S2,1.75,3.25,1.75
		s2.313-0.438,3.188-1.313S7.75-1.5,7.75-2.75c0-0.45-0.066-0.875-0.2-1.275C7.416-4.425,7.25-4.8,7.05-5.15l3.2-3.199L8.85-9.75z
		 M3.25-5.25c0.7,0,1.291,0.242,1.775,0.725C5.508-4.041,5.75-3.45,5.75-2.75S5.508-1.459,5.025-0.975
		C4.541-0.492,3.95-0.25,3.25-0.25S1.959-0.492,1.475-0.975C0.992-1.459,0.75-2.05,0.75-2.75s0.242-1.291,0.725-1.775
		C1.959-5.008,2.55-5.25,3.25-5.25z M-10.25-6.25v2.775c0,0.566,0.142,1.092,0.425,1.574C-9.542-1.416-9.15-1.05-8.65-0.8
		C-7.8-0.367-6.842,0-5.775,0.3c1.066,0.3,2.25,0.45,3.55,0.45c-0.2-0.3-0.371-0.621-0.512-0.963
		c-0.142-0.342-0.254-0.695-0.338-1.063c-1-0.083-1.892-0.254-2.675-0.512C-6.533-2.046-7.192-2.316-7.725-2.6
		c-0.167-0.084-0.296-0.205-0.387-0.363C-8.204-3.121-8.25-3.291-8.25-3.475V-4.25h5.175c0.083-0.367,0.196-0.717,0.338-1.05
		c0.142-0.333,0.313-0.65,0.512-0.95H-10.25z"/>
</symbol>
<use xlink:href="#New_Symbol"  width="20.5" height="19.5" id="XMLID_1_" x="-10.25" y="-9.75" transform="matrix(1 0 0 -1 12 12)" overflow="visible"/>
</svg>
