<?xml version="1.0" encoding="utf-8"?>
<!-- Generator: Adobe Illustrator 16.0.0, SVG Export Plug-In . SVG Version: 6.00 Build 0)  -->
<!DOCTYPE svg PUBLIC "-//W3C//DTD SVG 1.1//EN" "http://www.w3.org/Graphics/SVG/1.1/DTD/svg11.dtd">
<svg version="1.1" id="Layer_1" xmlns="http://www.w3.org/2000/svg" xmlns:xlink="http://www.w3.org/1999/xlink" x="0px" y="0px"
	 width="24px" height="24px" viewBox="0 0 24 24" enable-background="new 0 0 24 24" xml:space="preserve">
<symbol  id="New_Symbol" viewBox="-9 -9 18 18">
	<path fill="#7AE5D3" d="M-5-9v2h4v3.1c-0.817,0.184-1.546,0.529-2.188,1.038S-4.3-1.717-4.6-0.95
		C-5.85-0.8-6.896-0.254-7.737,0.688C-8.579,1.629-9,2.733-9,4v1c0,0.55,0.196,1.021,0.587,1.412C-8.021,6.805-7.55,7-7,7h2v2H5V7h2
		c0.55,0,1.021-0.195,1.412-0.588C8.805,6.021,9,5.55,9,5V4c0-1.267-0.421-2.371-1.263-3.313C6.896-0.254,5.85-0.8,4.6-0.95
		C4.3-1.717,3.829-2.354,3.188-2.862S1.816-3.717,1-3.9V-7h4v-2H-5z M-5,1.2V5h-2V4c0-0.633,0.183-1.204,0.55-1.713
		C-6.083,1.779-5.6,1.416-5,1.2z M0-2c0.834,0,1.541,0.291,2.125,0.875S3,0.166,3,1v6h-6V1c0-0.834,0.292-1.541,0.875-2.125
		S-0.833-2,0-2z M5,1.2c0.6,0.216,1.084,0.579,1.45,1.087C6.816,2.796,7,3.367,7,4v1H5V1.2z"/>
</symbol>
<use xlink:href="#New_Symbol"  width="18" height="18" id="XMLID_1_" x="-9" y="-9" transform="matrix(1 0 0 -1 12 12)" overflow="visible"/>
</svg>
